<svg width="114" height="114" viewBox="0 0 114 114" fill="none" xmlns="http://www.w3.org/2000/svg">
<path d="M14.521 47.2C10.6939 32.19 9.5267 14.1943 15.4167 12.1314C21.3067 10.0686 34.5795 24.5086 37.8095 27.7386" fill="url(#paint0_linear_27_1024)"/>
<path d="M32.4088 32.0006C20.466 12.4035 16.5574 14.1678 16.1774 14.3035C14.1146 15.0363 13.5989 21.2249 13.626 24.7806C13.6531 30.9963 14.7931 38.9492 16.7474 46.6306" fill="url(#paint1_radial_27_1024)"/>
<path d="M99.4777 47.2C103.305 32.1629 104.499 14.1943 98.5819 12.1314C92.6919 10.0686 79.419 24.5086 76.189 27.7386" fill="url(#paint2_linear_27_1024)"/>
<path d="M81.5908 32.0006C93.5337 12.4035 97.442 14.1678 97.8221 14.3035C99.885 15.0363 100.401 21.2249 100.374 24.7806C100.347 30.9963 99.2067 38.9492 97.252 46.6306" fill="url(#paint3_radial_27_1024)"/>
<path d="M89.1647 85.9879C95.4347 80.3426 101.433 75.8367 101.433 60.3655C101.433 27.9838 72.6347 17.4253 57.0001 17.4253C41.366 17.4253 12.5674 27.9838 12.5674 60.3926C12.5674 75.2667 18.2131 79.7455 24.1303 85.3367C30.536 91.4167 82.8947 91.6338 89.1647 85.9879Z" fill="url(#paint4_radial_27_1024)"/>
<path d="M33.874 23.6138L33.7383 23.8853C33.7383 23.8853 55.9413 49.2096 46.2783 60.7455C36.6426 72.2809 56.9996 84.1155 56.9996 84.1155C56.9996 84.1155 77.3567 72.2538 67.6942 60.7179C58.0313 49.2096 80.2342 23.8853 80.2342 23.8853L79.9355 23.5053C72.0096 19.1896 63.4055 17.4253 56.9996 17.4253C50.5396 17.4253 41.8812 19.2167 33.874 23.6138Z" fill="url(#paint5_radial_27_1024)"/>
<path d="M17.2088 62.0479C17.2088 40.7679 33.6846 32.3808 28.9617 26.7351C19.8146 33.4122 12.5674 44.1608 12.5674 60.3921C12.5674 75.2667 18.2131 79.745 24.1303 85.3367C25.8131 86.9109 30.6174 88.105 36.9146 88.8921C27.7946 82.3509 17.2088 74.7238 17.2088 62.0479Z" fill="url(#paint6_linear_27_1024)"/>
<path d="M39.5472 29.3118C39.5201 29.4746 39.493 29.6646 39.4658 29.8275C39.5201 29.6104 39.5472 29.4204 39.5472 29.3118Z" fill="url(#paint7_radial_27_1024)"/>
<path d="M96.7642 62.0479C96.7642 40.7679 80.2884 32.3808 85.0113 26.7351C94.1854 33.4122 101.433 44.1608 101.433 60.3921C101.433 75.2667 95.7872 79.745 89.8696 85.3367C88.1872 86.9109 83.3825 88.105 77.0854 88.8921C86.2054 82.3509 96.7642 74.7238 96.7642 62.0479Z" fill="url(#paint8_linear_27_1024)"/>
<path d="M79.8261 68.3711C71.3578 68.3711 66.3907 55.6411 56.999 55.6411C47.6078 55.6411 42.6677 68.3711 34.172 68.3711C25.7034 68.3711 18.3206 75.564 24.1291 85.3353C40.0891 100.481 37.1034 91.4423 56.999 102.218C67.5307 96.5182 71.5749 102.679 89.869 85.3353C95.6778 75.564 88.2949 68.3711 79.8261 68.3711Z" fill="url(#paint9_linear_27_1024)"/>
<path d="M71.1682 84.7662L56.9994 78.1433L42.831 84.7662C39.5467 92.0404 56.9994 98.6904 56.9994 98.6904C56.9994 98.6904 74.4524 92.0675 71.1682 84.7662Z" fill="url(#paint10_linear_27_1024)"/>
<path d="M63.5412 87.6972C63.5412 91.3072 60.6095 94.2385 56.9995 94.2385C53.3895 94.2385 50.4583 91.3072 50.4583 87.6972C50.4583 76.9755 53.3895 72.6602 56.9995 72.6602C60.6095 72.6602 63.5412 77.0031 63.5412 87.6972Z" fill="url(#paint11_linear_27_1024)"/>
<path d="M63.5412 87.6972C63.5412 77.0031 60.6095 72.6602 56.9995 72.6602C53.3895 72.6602 50.4583 76.9485 50.4583 87.6972C50.4583 87.9685 50.4853 88.2131 50.5124 88.4572C51.8153 87.9685 52.9283 87.3443 53.8783 86.6114C55.7241 85.1731 58.2753 85.1731 60.1212 86.6114C61.0712 87.3443 62.2112 87.9685 63.487 88.4572C63.5141 88.2131 63.5412 87.9414 63.5412 87.6972Z" fill="url(#paint12_linear_27_1024)"/>
<path d="M55.9958 80.1239C55.9958 77.301 56.4571 75.021 57 75.021C57.5429 75.021 58.0041 77.301 58.0041 80.1239C58.0041 88.511 57.5429 91.8498 57 91.8498C56.4571 91.8498 55.9958 88.4839 55.9958 80.1239Z" fill="url(#paint13_linear_27_1024)"/>
<path d="M63.0525 64.1103H50.9196C37.5383 62.0474 33.7383 69.0233 33.7383 74.3703C33.7383 80.8033 36.9683 87.0462 43.1026 87.0462C51.1096 87.0462 56.9725 83.2462 56.9725 78.1433C56.9725 83.2462 62.8354 87.0462 70.8425 87.0462C77.0042 87.0462 80.2067 80.8033 80.2067 74.3703C80.2342 68.9962 76.4613 62.0203 63.0525 64.1103Z" fill="url(#paint14_linear_27_1024)"/>
<path d="M75.3482 61.2884C77.6714 61.2884 79.5553 58.9552 79.5553 56.0767C79.5553 53.1987 77.6714 50.8655 75.3482 50.8655C73.0245 50.8655 71.1411 53.1987 71.1411 56.0767C71.1411 58.9552 73.0245 61.2884 75.3482 61.2884Z" fill="url(#paint15_radial_27_1024)"/>
<path d="M38.6239 61.2884C40.9474 61.2884 42.831 58.9552 42.831 56.0767C42.831 53.1987 40.9474 50.8655 38.6239 50.8655C36.3003 50.8655 34.4167 53.1987 34.4167 56.0767C34.4167 58.9552 36.3003 61.2884 38.6239 61.2884Z" fill="url(#paint16_radial_27_1024)"/>
<path d="M74.5341 55.8581C75.2685 55.8581 75.8641 55.1171 75.8641 54.2027C75.8641 53.2884 75.2685 52.5469 74.5341 52.5469C73.7993 52.5469 73.2041 53.2884 73.2041 54.2027C73.2041 55.1171 73.7993 55.8581 74.5341 55.8581Z" fill="url(#paint17_linear_27_1024)"/>
<path d="M37.8097 55.8581C38.5443 55.8581 39.1397 55.1171 39.1397 54.2027C39.1397 53.2884 38.5443 52.5469 37.8097 52.5469C37.0752 52.5469 36.4797 53.2884 36.4797 54.2027C36.4797 55.1171 37.0752 55.8581 37.8097 55.8581Z" fill="url(#paint18_linear_27_1024)"/>
<path d="M71.412 85.9863C61.8037 85.9863 60.012 81.0463 60.012 77.8434C60.012 76.1334 66.1737 72.7134 66.1737 68.8863C66.1737 65.9005 58.2207 67.7734 56.999 74.8034C55.7778 67.7463 47.8249 65.9005 47.8249 68.8863C47.8249 72.7134 53.9861 76.1063 53.9861 77.8434C53.9861 81.0734 52.1407 86.9634 42.5863 85.9863C35.312 85.2534 33.7649 74.3692 33.7649 74.3692C33.7649 80.8022 36.9949 87.0446 43.1292 87.0446C50.4037 87.0446 55.8861 83.9234 56.8637 79.5263C56.9178 79.2546 56.972 78.9834 56.999 78.6846C57.0537 78.9563 57.0807 79.2275 57.1349 79.5263C58.0849 83.9234 63.5949 87.0446 70.869 87.0446C77.0307 87.0446 80.2337 80.8022 80.2337 74.3692C80.2337 72.5234 79.392 85.9863 71.412 85.9863Z" fill="url(#paint19_radial_27_1024)"/>
<path d="M65.8755 68.02C62.4284 64.1659 51.5984 64.1659 48.1242 68.02C46.3327 70.0288 52.7113 77.0588 56.9996 77.0588C61.2884 77.0588 67.6672 70.0288 65.8755 68.02Z" fill="url(#paint20_linear_27_1024)"/>
<path d="M63.1882 67.7197C60.7729 66.2539 53.1999 66.2539 50.7841 67.7197C49.5353 68.4797 53.987 70.2168 56.9729 70.2168C59.9582 70.2168 64.4641 68.4797 63.1882 67.7197Z" fill="url(#paint21_linear_27_1024)"/>
<path d="M69.187 70.5688C87.78 71.383 102.98 82.4305 102.98 82.4305C102.98 82.4305 89.2729 70.2976 68.97 70.053L69.187 70.5688Z" fill="url(#paint22_linear_27_1024)"/>
<path d="M68.942 71.982C85.662 76.352 97.5774 89.299 97.5774 89.299C97.5774 89.299 86.7203 75.4837 68.8333 71.4937L68.942 71.982Z" fill="url(#paint23_linear_27_1024)"/>
<path d="M68.9966 68.5078C85.9066 66.3908 103.142 74.7237 103.142 74.7237C103.142 74.7237 86.8024 65.0608 68.7253 68.1008L68.9966 68.5078Z" fill="url(#paint24_linear_27_1024)"/>
<path d="M44.8131 70.5688C26.2203 71.383 11.0203 82.4305 11.0203 82.4305C11.0203 82.4305 24.7274 70.2976 45.0303 70.053L44.8131 70.5688Z" fill="url(#paint25_linear_27_1024)"/>
<path d="M45.0566 71.982C28.3366 76.352 16.4209 89.299 16.4209 89.299C16.4209 89.299 27.278 75.4837 45.1652 71.4937L45.0566 71.982Z" fill="url(#paint26_linear_27_1024)"/>
<path d="M45.0024 68.5078C28.0924 66.3908 10.8567 74.7237 10.8567 74.7237C10.8567 74.7237 27.1967 65.0608 45.2739 68.1008L45.0024 68.5078Z" fill="url(#paint27_linear_27_1024)"/>
<path d="M37.3203 21.9038C47.4989 23.8853 46.5761 42.4781 56.9989 42.4781C67.4219 42.4781 66.526 23.8853 76.6772 21.9038C70.0272 18.891 63.1602 17.561 57.7319 17.4253C57.4872 17.4253 57.216 17.4253 56.9719 17.4253C56.7272 17.4253 56.4831 17.4253 56.2119 17.4253C50.8102 17.561 43.9703 18.891 37.3203 21.9038Z" fill="url(#paint28_linear_27_1024)"/>
<defs>
<linearGradient id="paint0_linear_27_1024" x1="25.2396" y1="11.378" x2="22.4135" y2="71.079" gradientUnits="userSpaceOnUse">
<stop stop-color="#FBDF79"/>
<stop offset="0.00397695" stop-color="#FBE07A"/>
<stop offset="1" stop-color="#FFBC47"/>
</linearGradient>
<radialGradient id="paint1_radial_27_1024" cx="0" cy="0" r="1" gradientUnits="userSpaceOnUse" gradientTransform="translate(16.5154 51.3179) scale(35.9726 35.9726)">
<stop stop-color="#FCCE38"/>
<stop offset="1" stop-color="#FF8000"/>
</radialGradient>
<linearGradient id="paint2_linear_27_1024" x1="88.757" y1="11.378" x2="91.5828" y2="71.079" gradientUnits="userSpaceOnUse">
<stop stop-color="#FBDF79"/>
<stop offset="0.00397695" stop-color="#FBE07A"/>
<stop offset="1" stop-color="#FFBC47"/>
</linearGradient>
<radialGradient id="paint3_radial_27_1024" cx="0" cy="0" r="1" gradientUnits="userSpaceOnUse" gradientTransform="translate(97.5005 51.3179) rotate(180) scale(35.9725 35.9725)">
<stop stop-color="#FCCE38"/>
<stop offset="1" stop-color="#FF8000"/>
</radialGradient>
<radialGradient id="paint4_radial_27_1024" cx="0" cy="0" r="1" gradientUnits="userSpaceOnUse" gradientTransform="translate(67.3836 19.1724) scale(61.9476)">
<stop stop-color="#FBDF79"/>
<stop offset="0.00397695" stop-color="#FBE07A"/>
<stop offset="1" stop-color="#FFBC47"/>
</radialGradient>
<radialGradient id="paint5_radial_27_1024" cx="0" cy="0" r="1" gradientUnits="userSpaceOnUse" gradientTransform="translate(63.4971 99.4779) scale(99.6042 99.6042)">
<stop stop-color="#FBDF79"/>
<stop offset="0.00397695" stop-color="#FBE07A"/>
<stop offset="1" stop-color="#FFBC47"/>
</radialGradient>
<linearGradient id="paint6_linear_27_1024" x1="24.7455" y1="17.7593" x2="24.7455" y2="152.948" gradientUnits="userSpaceOnUse">
<stop stop-color="#FCCE38"/>
<stop offset="1" stop-color="#FF8000"/>
</linearGradient>
<radialGradient id="paint7_radial_27_1024" cx="0" cy="0" r="1" gradientUnits="userSpaceOnUse" gradientTransform="translate(28.1372 -11.269) rotate(105.816) scale(63.055 133.167)">
<stop stop-color="#E74A3A"/>
<stop offset="1" stop-color="#FF9D00"/>
</radialGradient>
<linearGradient id="paint8_linear_27_1024" x1="89.2526" y1="17.7593" x2="89.2526" y2="152.948" gradientUnits="userSpaceOnUse">
<stop stop-color="#FCCE38"/>
<stop offset="1" stop-color="#FF8000"/>
</linearGradient>
<linearGradient id="paint9_linear_27_1024" x1="56.9976" y1="117.811" x2="56.9976" y2="66.3381" gradientUnits="userSpaceOnUse">
<stop stop-color="#FBE07A"/>
<stop offset="1" stop-color="white"/>
</linearGradient>
<linearGradient id="paint10_linear_27_1024" x1="56.9985" y1="75.8153" x2="56.9985" y2="98.3878" gradientUnits="userSpaceOnUse">
<stop stop-color="#FBE07A"/>
<stop offset="1" stop-color="white"/>
</linearGradient>
<linearGradient id="paint11_linear_27_1024" x1="56.9491" y1="85.6913" x2="59.8761" y2="101.693" gradientUnits="userSpaceOnUse">
<stop stop-color="#FF6688"/>
<stop offset="1" stop-color="#FB9C9C"/>
</linearGradient>
<linearGradient id="paint12_linear_27_1024" x1="57.874" y1="90.1397" x2="54.6867" y2="74.2666" gradientUnits="userSpaceOnUse">
<stop stop-color="#FF6688"/>
<stop offset="1" stop-color="#B30B0B"/>
</linearGradient>
<linearGradient id="paint13_linear_27_1024" x1="58.3932" y1="90.0338" x2="55.2054" y2="74.1622" gradientUnits="userSpaceOnUse">
<stop stop-color="#FF6688"/>
<stop offset="1" stop-color="#B30B0B"/>
</linearGradient>
<linearGradient id="paint14_linear_27_1024" x1="56.9986" y1="113.375" x2="56.9986" y2="68.7644" gradientUnits="userSpaceOnUse">
<stop stop-color="#FBE07A"/>
<stop offset="1" stop-color="white"/>
</linearGradient>
<radialGradient id="paint15_radial_27_1024" cx="0" cy="0" r="1" gradientUnits="userSpaceOnUse" gradientTransform="translate(75.5577 54.6503) rotate(91.4444) scale(5.1424 4.1728)">
<stop stop-color="#512D00"/>
<stop offset="1" stop-color="#3C2200"/>
</radialGradient>
<radialGradient id="paint16_radial_27_1024" cx="0" cy="0" r="1" gradientUnits="userSpaceOnUse" gradientTransform="translate(38.4393 54.7021) rotate(88.5556) scale(5.1424 4.17279)">
<stop stop-color="#512D00"/>
<stop offset="1" stop-color="#3C2200"/>
</radialGradient>
<linearGradient id="paint17_linear_27_1024" x1="73.4806" y1="51.9218" x2="75.7249" y2="56.801" gradientUnits="userSpaceOnUse">
<stop stop-color="#A3541E"/>
<stop offset="1" stop-color="#512D00"/>
</linearGradient>
<linearGradient id="paint18_linear_27_1024" x1="36.7559" y1="51.9218" x2="39.0003" y2="56.801" gradientUnits="userSpaceOnUse">
<stop stop-color="#A3541E"/>
<stop offset="1" stop-color="#512D00"/>
</linearGradient>
<radialGradient id="paint19_radial_27_1024" cx="0" cy="0" r="1" gradientUnits="userSpaceOnUse" gradientTransform="translate(54.7832 43.4271) scale(50.9471 50.9471)">
<stop stop-color="#FCCE38"/>
<stop offset="1" stop-color="#FF8000" stop-opacity="0"/>
</radialGradient>
<linearGradient id="paint20_linear_27_1024" x1="58.2303" y1="73.4464" x2="50.9885" y2="47.1286" gradientUnits="userSpaceOnUse">
<stop stop-color="#FF6688"/>
<stop offset="1" stop-color="#FB9C9C"/>
</linearGradient>
<linearGradient id="paint21_linear_27_1024" x1="55.6975" y1="62.7132" x2="57.0346" y2="68.1639" gradientUnits="userSpaceOnUse">
<stop stop-color="#FF6688"/>
<stop offset="1" stop-color="#FB9C9C"/>
</linearGradient>
<linearGradient id="paint22_linear_27_1024" x1="34.561" y1="132.572" x2="68.6004" y2="96.1894" gradientUnits="userSpaceOnUse">
<stop stop-color="#FCCE38"/>
<stop offset="1" stop-color="#C86F34"/>
</linearGradient>
<linearGradient id="paint23_linear_27_1024" x1="26.2695" y1="121.231" x2="62.3011" y2="95.3695" gradientUnits="userSpaceOnUse">
<stop stop-color="#FCCE38"/>
<stop offset="1" stop-color="#C86F34"/>
</linearGradient>
<linearGradient id="paint24_linear_27_1024" x1="50.0521" y1="128.355" x2="73.6915" y2="90.8286" gradientUnits="userSpaceOnUse">
<stop stop-color="#FCCE38"/>
<stop offset="1" stop-color="#C86F34"/>
</linearGradient>
<linearGradient id="paint25_linear_27_1024" x1="79.4308" y1="132.571" x2="45.3917" y2="96.1879" gradientUnits="userSpaceOnUse">
<stop stop-color="#FCCE38"/>
<stop offset="1" stop-color="#C86F34"/>
</linearGradient>
<linearGradient id="paint26_linear_27_1024" x1="87.7192" y1="121.257" x2="51.6881" y2="95.3952" gradientUnits="userSpaceOnUse">
<stop stop-color="#FCCE38"/>
<stop offset="1" stop-color="#C86F34"/>
</linearGradient>
<linearGradient id="paint27_linear_27_1024" x1="63.9378" y1="128.345" x2="40.2982" y2="90.8186" gradientUnits="userSpaceOnUse">
<stop stop-color="#FCCE38"/>
<stop offset="1" stop-color="#C86F34"/>
</linearGradient>
<linearGradient id="paint28_linear_27_1024" x1="76.0531" y1="-16.0666" x2="45.1833" y2="45.4448" gradientUnits="userSpaceOnUse">
<stop stop-color="#FBE07A"/>
<stop offset="1" stop-color="white"/>
</linearGradient>
</defs>
</svg>
