<svg width="164" height="40" viewBox="0 0 164 40" fill="none" xmlns="http://www.w3.org/2000/svg">
<path d="M38.882 4.53485C37.5752 3.16281 35.9773 2.02602 34.137 1.23453C32.2982 0.442424 30.2186 -0.00124737 27.9807 2.63416e-06C27.5709 2.63416e-06 27.1536 0.0136745 26.7308 0.0447683H26.7329C23.6401 0.270003 20.9477 1.5493 18.6895 2.98672C16.489 4.39172 14.6631 5.97844 13.3203 7.0182C9.95004 8.65836 6.85651 10.4785 4.46744 12.8629C3.25753 14.0731 2.23368 15.4315 1.47648 16.9678C0.718519 18.5028 0.230703 20.2116 0.0671327 22.1006C0.0224064 22.6127 5.8221e-07 23.1167 5.8221e-07 23.6127C-0.000680962 26.1882 0.597034 28.529 1.65692 30.5681C3.24748 33.6308 5.86188 35.9984 8.95464 37.5858C12.05 39.175 15.6287 39.9988 19.2378 40C24.3499 40.0006 28.991 38.0916 32.3334 35.014C35.3502 32.6059 37.9381 29.0772 39.836 25.4109C40.7907 23.5598 41.5649 21.6745 42.1043 19.873C42.6437 18.071 42.9538 16.3567 42.9552 14.8136C42.9539 10.9558 41.4937 7.28078 38.882 4.53485ZM39.2886 19.1631C38.5551 21.6104 37.3093 24.3259 35.7439 26.803C34.1826 29.2819 32.2942 31.5258 30.3489 33.0515L30.3068 33.0844L30.2655 33.123C27.4428 35.7178 23.5515 37.3207 19.238 37.3213C15.0724 37.3238 10.9482 36.0358 7.92466 33.693C6.41027 32.5227 5.16577 31.0927 4.2945 29.4158C3.42468 27.7389 2.92187 25.8117 2.92119 23.6128C2.92119 23.1897 2.93942 22.7566 2.97818 22.3142C3.11866 20.7132 3.52171 19.3225 4.13774 18.0718C5.06328 16.197 6.4814 14.6177 8.30803 13.1898C10.1334 11.7648 12.3629 10.506 14.8328 9.31383L14.9706 9.24664L15.0907 9.15461C16.5536 8.02524 18.3238 6.48141 20.3575 5.18656C22.3876 3.8886 24.6356 2.8768 26.9597 2.71563H26.9617C27.3064 2.69016 27.6463 2.67828 27.9809 2.67828C29.8014 2.67953 31.4401 3.0336 32.8969 3.65953C35.0777 4.59789 36.8554 6.15906 38.0985 8.1086C39.3395 10.0562 40.035 12.3864 40.0344 14.8138C40.0355 16.0214 39.7778 17.5341 39.2886 19.1631Z" fill="#EB339B"/>
<path d="M16.5366 30.277C15.5201 30.277 14.6957 31.0324 14.6957 31.9645C14.6957 32.8978 15.5201 33.6532 16.5366 33.6532C17.553 33.6532 18.3774 32.8978 18.3774 31.9645C18.3774 31.0324 17.5531 30.277 16.5366 30.277Z" fill="#EB339B"/>
<path d="M27.2465 23.5798C26.2301 23.5798 25.4057 24.3358 25.4057 25.2679C25.4057 26.2013 26.2301 26.9567 27.2465 26.9567C28.263 26.9567 29.0875 26.2013 29.0875 25.2679C29.0875 24.3358 28.263 23.5798 27.2465 23.5798Z" fill="#EB339B"/>
<path d="M21.9981 10.7305C20.9824 10.7305 20.158 11.4865 20.158 12.4186C20.158 13.3521 20.9824 14.1074 21.9981 14.1074C23.0153 14.1074 23.8397 13.352 23.8397 12.4186C23.8397 11.4865 23.0153 10.7305 21.9981 10.7305Z" fill="#EB339B"/>
<path d="M32.7081 12.5158C31.6916 12.5158 30.8679 13.2724 30.8679 14.2039C30.8679 15.1372 31.6916 15.8927 32.7081 15.8927C33.7253 15.8927 34.5496 15.1372 34.5496 14.2039C34.5496 13.2724 33.7253 12.5158 32.7081 12.5158Z" fill="#EB339B"/>
<path d="M13.1283 19.5619C12.1119 19.5619 11.2875 20.318 11.2875 21.2501C11.2875 22.1828 12.1119 22.9382 13.1283 22.9382C14.1455 22.9382 14.9699 22.1828 14.9699 21.2501C14.9699 20.318 14.1454 19.5619 13.1283 19.5619Z" fill="#EB339B"/>
<path d="M49.7819 11.2372C49.7819 9.94621 49.9705 8.64276 50.3478 7.3269C50.7251 6.01103 51.3036 4.88138 52.0833 3.93793C53.7434 1.85241 56.1078 0.809655 59.1764 0.809655C60.9371 0.809655 62.6475 1.19448 64.3075 1.96414C64.7351 2.13793 64.9489 2.42345 64.9489 2.82069C64.9489 3.56552 64.6471 3.95034 64.0434 3.97517C63.9177 3.97517 63.8045 3.96276 63.7039 3.93793C61.9683 3.34207 60.5849 3.04414 59.5537 3.04414C58.5476 3.04414 57.705 3.15586 57.0258 3.37931C56.3467 3.60276 55.7556 3.9131 55.2526 4.31035C54.7495 4.70759 54.3219 5.1669 53.9698 5.68828C53.6176 6.20966 53.341 6.7931 53.1397 7.43862C52.7122 8.63035 52.4984 9.89655 52.4984 11.2372C52.4984 13.4221 52.9888 15.2593 53.9698 16.749C55.1268 18.5117 56.9127 19.3931 59.3273 19.3931C60.9874 19.3931 62.572 18.9586 64.0812 18.0897C64.2824 18.04 64.471 18.0152 64.6471 18.0152C64.8483 18.0152 65.0244 18.1021 65.1753 18.2759C65.3514 18.4497 65.4394 18.6731 65.4394 18.9462C65.4394 19.2193 65.3388 19.48 65.1376 19.7283C64.9364 19.9517 64.6597 20.1628 64.3075 20.3614C63.9806 20.5352 63.6033 20.6966 63.1757 20.8455C62.7732 20.9945 62.3456 21.1186 61.8929 21.2179C60.9371 21.4662 60.0316 21.5903 59.1764 21.5903C56.0826 21.5903 53.7183 20.56 52.0833 18.4993C50.549 16.6372 49.7819 14.2166 49.7819 11.2372Z" fill="#EB339B"/>
<path d="M70.8576 2.22483C70.8576 1.72828 71.1343 1.34345 71.6876 1.07034C71.8385 0.995862 72.002 0.958621 72.1781 0.958621H78.3279C81.6481 0.958621 83.8867 1.82759 85.0437 3.56552C85.4461 4.28552 85.6474 5.20414 85.6474 6.32138C85.6474 7.41379 85.2826 8.34483 84.5532 9.11448C83.8238 9.88414 82.78 10.4055 81.4217 10.6786V10.7903C82.7297 11.0138 83.6603 11.4979 84.2137 12.2428C84.6413 12.8634 84.9054 13.6952 85.006 14.7379C85.1317 15.7807 85.2323 16.6 85.3078 17.1959C85.3833 18.0648 85.4587 19.0207 85.5342 20.0634C85.5342 20.4855 85.3958 20.7959 85.1192 20.9945C84.8676 21.1931 84.5784 21.2924 84.2514 21.2924C83.9244 21.2924 83.6351 21.2055 83.3836 21.0317C83.1321 20.8331 82.9812 20.5476 82.9309 20.1752C82.8303 19.0331 82.7422 18.0276 82.6668 17.1586C82.5913 16.2648 82.5033 15.52 82.4027 14.9241C82.3021 14.3035 82.1637 13.7945 81.9876 13.3972C81.8116 13 81.5726 12.6897 81.2708 12.4662C80.7677 12.0938 79.7742 11.8828 78.2902 11.8331H73.4231V20.0634C73.4231 20.6593 73.159 21.0441 72.6308 21.2179C72.4799 21.2676 72.2787 21.2924 72.0272 21.2924C71.8008 21.2924 71.5493 21.1931 71.2726 20.9945C70.9959 20.7959 70.8576 20.4855 70.8576 20.0634V2.22483ZM77.1961 9.89655C79.5856 9.89655 81.1953 9.52414 82.0254 8.77931C82.629 8.25793 82.956 7.47586 83.0063 6.4331C83.0063 4.96828 82.453 4 81.3463 3.52828C80.7426 3.23035 80.1389 3.06897 79.5353 3.04414C78.9316 2.99448 78.4537 2.96965 78.1016 2.96965H73.4231V9.89655H77.1961Z" fill="#EB339B"/>
<path d="M92.0465 21.2924C91.7447 21.2924 91.4931 21.1931 91.2919 20.9945C90.9398 20.6966 90.7637 20.3862 90.7637 20.0634V2.22483C90.7637 1.7531 91.0152 1.38069 91.5183 1.10759C91.6692 1.05793 91.8201 1.00828 91.971 0.958621H102.724C103.101 0.958621 103.378 1.07035 103.554 1.29379C103.73 1.51724 103.818 1.76552 103.818 2.03862C103.818 2.2869 103.717 2.52276 103.516 2.74621C103.315 2.96966 103.051 3.08138 102.724 3.08138H93.2538V9.82207H102.271C102.648 9.82207 102.925 9.93379 103.101 10.1572C103.277 10.3559 103.365 10.5917 103.365 10.8648C103.365 11.1131 103.265 11.3366 103.063 11.5352C102.862 11.7338 102.598 11.8331 102.271 11.8331H93.2538V19.2069H103.139C103.491 19.2069 103.755 19.3186 103.931 19.5421C104.107 19.7655 104.195 20.0138 104.195 20.2869C104.195 20.56 104.095 20.7959 103.893 20.9945C103.717 21.1931 103.466 21.2924 103.139 21.2924H92.0465Z" fill="#EB339B"/>
<path d="M107.641 11.2372C107.641 9.94621 107.83 8.64276 108.207 7.3269C108.584 6.01103 109.163 4.88138 109.943 3.93793C111.603 1.85241 113.967 0.809655 117.036 0.809655C118.796 0.809655 120.507 1.19448 122.167 1.96414C122.594 2.13793 122.808 2.42345 122.808 2.82069C122.808 3.56552 122.506 3.95034 121.903 3.97517C121.777 3.97517 121.664 3.96276 121.563 3.93793C119.827 3.34207 118.444 3.04414 117.413 3.04414C116.407 3.04414 115.564 3.15586 114.885 3.37931C114.206 3.60276 113.615 3.9131 113.112 4.31035C112.609 4.70759 112.181 5.1669 111.829 5.68828C111.477 6.20966 111.2 6.7931 110.999 7.43862C110.571 8.63035 110.358 9.89655 110.358 11.2372C110.358 13.4221 110.848 15.2593 111.829 16.749C112.986 18.5117 114.772 19.3931 117.186 19.3931C118.847 19.3931 120.431 18.9586 121.94 18.0897C122.142 18.04 122.33 18.0152 122.506 18.0152C122.707 18.0152 122.884 18.1021 123.034 18.2759C123.211 18.4497 123.299 18.6731 123.299 18.9462C123.299 19.2193 123.198 19.48 122.997 19.7283C122.796 19.9517 122.519 20.1628 122.167 20.3614C121.84 20.5352 121.462 20.6966 121.035 20.8455C120.632 20.9945 120.205 21.1186 119.752 21.2179C118.796 21.4662 117.891 21.5903 117.036 21.5903C113.942 21.5903 111.577 20.56 109.943 18.4993C108.408 16.6372 107.641 14.2166 107.641 11.2372Z" fill="#EB339B"/>
<path d="M141.997 2.18759C141.997 1.61655 142.287 1.24414 142.865 1.07034C143.016 1.04552 143.205 1.02069 143.431 0.995862C143.657 0.971035 143.909 1.05793 144.186 1.25655C144.462 1.45517 144.601 1.76552 144.601 2.18759V20.0634C144.601 20.4359 144.487 20.7214 144.261 20.92C143.959 21.1683 143.632 21.2924 143.28 21.2924C142.953 21.2924 142.651 21.1931 142.375 20.9945C142.123 20.7959 141.997 20.4855 141.997 20.0634V11.7959H131.169V20.0634C131.169 20.4359 131.069 20.7214 130.867 20.92C130.565 21.1683 130.238 21.2924 129.886 21.2924C129.534 21.2924 129.232 21.1931 128.981 20.9945C128.729 20.7959 128.604 20.4855 128.604 20.0634V2.18759C128.604 1.61655 128.88 1.24414 129.434 1.07034C129.585 1.04552 129.773 1.02069 130 0.995862C130.226 0.971035 130.477 1.05793 130.754 1.25655C131.031 1.45517 131.169 1.76552 131.169 2.18759V9.6731H141.997V2.18759Z" fill="#EB339B"/>
<path d="M151.508 21.2924C151.207 21.2924 150.955 21.1931 150.754 20.9945C150.402 20.6966 150.226 20.3862 150.226 20.0634V2.22483C150.226 1.7531 150.477 1.38069 150.98 1.10759C151.131 1.05793 151.282 1.00828 151.433 0.958621H162.186C162.563 0.958621 162.84 1.07035 163.016 1.29379C163.192 1.51724 163.28 1.76552 163.28 2.03862C163.28 2.2869 163.179 2.52276 162.978 2.74621C162.777 2.96966 162.513 3.08138 162.186 3.08138H152.716V9.82207H161.733C162.11 9.82207 162.387 9.93379 162.563 10.1572C162.739 10.3559 162.827 10.5917 162.827 10.8648C162.827 11.1131 162.726 11.3366 162.525 11.5352C162.324 11.7338 162.06 11.8331 161.733 11.8331H152.716V19.2069H162.601C162.953 19.2069 163.217 19.3186 163.393 19.5421C163.569 19.7655 163.657 20.0138 163.657 20.2869C163.657 20.56 163.557 20.7959 163.355 20.9945C163.179 21.1931 162.928 21.2924 162.601 21.2924H151.508Z" fill="#EB339B"/>
<path d="M49.439 24.8552C49.439 24.6437 49.5015 24.4762 49.6265 24.3529C49.8407 24.1414 50.0729 24.018 50.3228 23.9828H55.0366C56.3401 23.9828 57.4114 24.3264 58.2506 25.0138C59.0719 25.6659 59.4826 26.5383 59.4826 27.631C59.4826 28.4241 59.2326 29.1115 58.7327 29.6931C58.197 30.2923 57.5096 30.6889 56.6704 30.8828V30.9092C58.2774 31.1912 59.3398 31.949 59.8576 33.1828C60.0004 33.5705 60.0718 34.0111 60.0718 34.5046C60.0718 34.9981 59.9915 35.4828 59.8308 35.9586C59.6701 36.4345 59.3933 36.8487 59.0005 37.2011C58.1078 38.0119 56.849 38.4172 55.2241 38.4172H50.3228C50.1086 38.4172 49.9211 38.3467 49.7604 38.2057C49.5461 38.0295 49.439 37.8092 49.439 37.5448V24.8552ZM51.2067 37.0425H54.2867C55.6437 37.0425 56.599 36.8487 57.1525 36.4609C57.8489 36.0379 58.197 35.333 58.197 34.346C58.197 32.795 57.2686 31.9138 55.4116 31.7023C54.8581 31.6671 54.2332 31.6494 53.5368 31.6494H51.2067V37.0425ZM57.6346 27.7897C57.6346 26.1682 56.5008 25.3751 54.2332 25.4103H51.2067V30.3276H54.2599C55.7598 30.3276 56.7865 29.8782 57.34 28.9793C57.5364 28.6621 57.6346 28.2655 57.6346 27.7897Z" fill="#EB339B"/>
<path d="M75.274 37.3069C75.2919 37.4126 75.3008 37.5184 75.3008 37.6241C75.3008 37.7299 75.274 37.8356 75.2205 37.9414C75.1669 38.0471 75.0955 38.1264 75.0062 38.1793C74.8277 38.3379 74.6312 38.4172 74.417 38.4172C73.9885 38.4172 73.7028 38.2322 73.5599 37.8621L72.2476 34.6632H65.0162L63.7306 37.8621C63.6056 38.2322 63.3556 38.4172 62.9807 38.4172C62.6057 38.4172 62.32 38.2586 62.1236 37.9414C62.07 37.8356 62.0433 37.7387 62.0433 37.6506C62.0433 37.5625 62.07 37.4479 62.1236 37.3069L66.9713 25.569C67.3284 24.6877 67.7391 24.1854 68.2033 24.0621C68.3283 24.0444 68.489 24.018 68.6854 23.9828C69.0425 23.9828 69.3104 24.0621 69.4889 24.2207C69.7746 24.4322 70.0603 24.8816 70.346 25.569L75.274 37.3069ZM65.525 33.2621H71.7655L68.6319 25.4897L65.525 33.2621Z" fill="#EB339B"/>
<path d="M76.8276 25.4897C76.5598 25.4897 76.3634 25.4103 76.2384 25.2517C76.1134 25.0931 76.0509 24.9257 76.0509 24.7494C76.0509 24.5556 76.1134 24.3793 76.2384 24.2207C76.3634 24.0621 76.5598 23.9828 76.8276 23.9828H86.6034C86.8534 23.9828 87.0408 24.0621 87.1658 24.2207C87.2908 24.3793 87.3533 24.5556 87.3533 24.7494C87.3533 24.9257 87.2819 25.0931 87.139 25.2517C87.0141 25.4103 86.8355 25.4897 86.6034 25.4897H82.6395V37.5448C82.6395 37.9502 82.461 38.2234 82.1039 38.3644C81.9967 38.3996 81.8539 38.4172 81.6753 38.4172C81.4968 38.4172 81.3093 38.3467 81.1129 38.2057C80.9165 38.0648 80.8183 37.8444 80.8183 37.5448V25.4897H76.8276Z" fill="#EB339B"/>
<path d="M101.306 37.3069C101.324 37.4126 101.333 37.5184 101.333 37.6241C101.333 37.7299 101.306 37.8356 101.252 37.9414C101.199 38.0471 101.127 38.1264 101.038 38.1793C100.859 38.3379 100.663 38.4172 100.449 38.4172C100.02 38.4172 99.7346 38.2322 99.5917 37.8621L98.2793 34.6632H91.0479L89.7624 37.8621C89.6374 38.2322 89.3874 38.4172 89.0124 38.4172C88.6375 38.4172 88.3518 38.2586 88.1554 37.9414C88.1018 37.8356 88.075 37.7387 88.075 37.6506C88.075 37.5625 88.1018 37.4479 88.1554 37.3069L93.0031 25.569C93.3602 24.6877 93.7709 24.1854 94.2351 24.0621C94.3601 24.0444 94.5208 24.018 94.7172 23.9828C95.0743 23.9828 95.3421 24.0621 95.5207 24.2207C95.8064 24.4322 96.0921 24.8816 96.3778 25.569L101.306 37.3069ZM91.5568 33.2621H97.7973L94.6636 25.4897L91.5568 33.2621Z" fill="#EB339B"/>
<path d="M102.859 25.4897C102.592 25.4897 102.395 25.4103 102.27 25.2517C102.145 25.0931 102.083 24.9257 102.083 24.7494C102.083 24.5556 102.145 24.3793 102.27 24.2207C102.395 24.0621 102.592 23.9828 102.859 23.9828H112.635C112.885 23.9828 113.073 24.0621 113.198 24.2207C113.323 24.3793 113.385 24.5556 113.385 24.7494C113.385 24.9257 113.314 25.0931 113.171 25.2517C113.046 25.4103 112.867 25.4897 112.635 25.4897H108.671V37.5448C108.671 37.9502 108.493 38.2234 108.136 38.3644C108.028 38.3996 107.886 38.4172 107.707 38.4172C107.529 38.4172 107.341 38.3467 107.145 38.2057C106.948 38.0648 106.85 37.8444 106.85 37.5448V25.4897H102.859Z" fill="#EB339B"/>
<path d="M115.741 24.8552C115.741 24.4851 115.919 24.2207 116.276 24.0621C116.383 24.0444 116.535 24.0268 116.732 24.0092C116.928 23.9916 117.107 24.0533 117.267 24.1943C117.446 24.3352 117.535 24.5556 117.535 24.8552V37.5448C117.535 37.9678 117.348 38.241 116.973 38.3644C116.865 38.3996 116.723 38.4172 116.544 38.4172C116.366 38.4172 116.187 38.3467 116.008 38.2057C115.83 38.0648 115.741 37.8444 115.741 37.5448V24.8552Z" fill="#EB339B"/>
<path d="M121.503 25.1724C121.503 24.8375 121.619 24.5644 121.851 24.3529C122.065 24.1414 122.297 24.018 122.547 23.9828C123.047 23.9828 123.44 24.1766 123.726 24.5644L131.493 36.1172V24.8287C131.493 24.5467 131.546 24.3529 131.654 24.2471C131.85 24.0709 132.037 23.9828 132.216 23.9828C132.412 23.9828 132.564 24.0004 132.671 24.0356C132.778 24.0709 132.868 24.1238 132.939 24.1943C133.136 24.3352 133.225 24.5467 133.207 24.8287V37.2276C133.207 37.7563 132.948 38.1264 132.43 38.3379C132.305 38.3908 132.145 38.4172 131.948 38.4172C131.52 38.4172 131.145 38.2234 130.823 37.8356L123.244 26.4414V37.6241C123.244 37.8709 123.172 38.0471 123.029 38.1529C122.815 38.3291 122.592 38.4172 122.36 38.4172C122.128 38.4172 121.922 38.3556 121.744 38.2322C121.583 38.0912 121.503 37.8885 121.503 37.6241V25.1724Z" fill="#EB339B"/>
<path d="M146.455 24.8552C146.455 24.4498 146.66 24.1854 147.071 24.0621C147.178 24.0444 147.312 24.0268 147.473 24.0092C147.633 23.9916 147.812 24.0533 148.008 24.1943C148.205 24.3352 148.303 24.5556 148.303 24.8552V37.5448C148.303 37.8092 148.222 38.0119 148.062 38.1529C147.848 38.3291 147.615 38.4172 147.365 38.4172C147.133 38.4172 146.919 38.3467 146.723 38.2057C146.544 38.0648 146.455 37.8444 146.455 37.5448V31.6759H138.768V37.5448C138.768 37.8092 138.697 38.0119 138.554 38.1529C138.34 38.3291 138.107 38.4172 137.857 38.4172C137.607 38.4172 137.393 38.3467 137.215 38.2057C137.036 38.0648 136.947 37.8444 136.947 37.5448V24.8552C136.947 24.4498 137.143 24.1854 137.536 24.0621C137.643 24.0444 137.777 24.0268 137.938 24.0092C138.099 23.9916 138.277 24.0533 138.473 24.1943C138.67 24.3352 138.768 24.5556 138.768 24.8552V30.169H146.455V24.8552Z" fill="#EB339B"/>
<path d="M163.973 37.3069C163.991 37.4126 164 37.5184 164 37.6241C164 37.7299 163.973 37.8356 163.92 37.9414C163.866 38.0471 163.795 38.1264 163.705 38.1793C163.527 38.3379 163.33 38.4172 163.116 38.4172C162.688 38.4172 162.402 38.2322 162.259 37.8621L160.947 34.6632H153.715L152.43 37.8621C152.305 38.2322 152.055 38.4172 151.68 38.4172C151.305 38.4172 151.019 38.2586 150.823 37.9414C150.769 37.8356 150.742 37.7387 150.742 37.6506C150.742 37.5625 150.769 37.4479 150.823 37.3069L155.671 25.569C156.028 24.6877 156.438 24.1854 156.903 24.0621C157.027 24.0444 157.188 24.018 157.385 23.9828C157.742 23.9828 158.01 24.0621 158.188 24.2207C158.474 24.4322 158.759 24.8816 159.045 25.569L163.973 37.3069ZM154.224 33.2621H160.465L157.331 25.4897L154.224 33.2621Z" fill="#EB339B"/>
</svg>
