<svg width="500" height="500" viewBox="0 0 500 500" fill="none" xmlns="http://www.w3.org/2000/svg">
<rect width="500" height="500" fill="#EB339B"/>
<path d="M143.949 211.337C140.724 207.907 136.781 205.065 132.24 203.086C127.702 201.106 122.57 199.997 117.048 200C116.036 200 115.007 200.034 113.963 200.112H113.968C106.336 200.675 99.6924 203.873 94.1198 207.467C88.6898 210.979 84.1839 214.946 80.8703 217.546C72.5536 221.646 64.9197 226.196 59.0242 232.157C56.0386 235.183 53.512 238.579 51.6435 242.42C49.7731 246.257 48.5693 250.529 48.1657 255.252C48.0553 256.532 48 257.792 48 259.032C47.9983 265.471 49.4733 271.322 52.0888 276.42C56.0138 284.077 62.4653 289.996 70.0973 293.964C77.7358 297.937 86.5667 299.997 95.4728 300C108.088 300.002 119.541 295.229 127.789 287.535C135.233 281.515 141.619 272.693 146.303 263.527C148.659 258.9 150.569 254.186 151.9 249.682C153.231 245.178 153.997 240.892 154 237.034C153.997 227.389 150.394 218.202 143.949 211.337ZM144.952 247.908C143.142 254.026 140.068 260.815 136.205 267.007C132.352 273.205 127.692 278.814 122.892 282.629L122.788 282.711L122.686 282.808C115.72 289.295 106.118 293.302 95.4733 293.303C85.1941 293.31 75.0169 290.089 67.5556 284.233C63.8185 281.307 60.7475 277.732 58.5975 273.539C56.451 269.347 55.2103 264.529 55.2086 259.032C55.2086 257.974 55.2536 256.891 55.3492 255.786C55.6959 251.783 56.6905 248.306 58.2107 245.179C60.4946 240.492 63.9941 236.544 68.5016 232.974C73.006 229.412 78.5077 226.265 84.6027 223.285L84.9426 223.117L85.2391 222.887C88.8491 220.063 93.2175 216.204 98.2359 212.966C103.246 209.721 108.793 207.192 114.528 206.789H114.533C115.384 206.725 116.223 206.696 117.048 206.696C121.541 206.699 125.584 207.584 129.179 209.149C134.561 211.495 138.948 215.398 142.015 220.271C145.078 225.14 146.794 230.966 146.792 237.035C146.795 240.054 146.159 243.835 144.952 247.908Z" fill="white"/>
<path d="M88.8071 275.692C86.2988 275.692 84.2644 277.581 84.2644 279.911C84.2644 282.245 86.2988 284.133 88.8071 284.133C91.3153 284.133 93.3497 282.244 93.3497 279.911C93.3497 277.581 91.3155 275.692 88.8071 275.692Z" fill="white"/>
<path d="M115.236 258.949C112.728 258.949 110.693 260.84 110.693 263.17C110.693 265.503 112.728 267.392 115.236 267.392C117.744 267.392 119.779 265.503 119.779 263.17C119.779 260.84 117.744 258.949 115.236 258.949Z" fill="white"/>
<path d="M102.285 226.826C99.7779 226.826 97.7435 228.716 97.7435 231.047C97.7435 233.38 99.7779 235.268 102.285 235.268C104.795 235.268 106.829 233.38 106.829 231.047C106.829 228.716 104.794 226.826 102.285 226.826Z" fill="white"/>
<path d="M128.713 231.29C126.205 231.29 124.172 233.181 124.172 235.51C124.172 237.843 126.205 239.732 128.713 239.732C131.223 239.732 133.258 237.843 133.258 235.51C133.258 233.181 131.223 231.29 128.713 231.29Z" fill="white"/>
<path d="M80.3966 248.905C77.8883 248.905 75.854 250.795 75.854 253.125C75.854 255.457 77.8883 257.346 80.3966 257.346C82.9067 257.346 84.9409 255.457 84.9409 253.125C84.9409 250.795 82.9065 248.905 80.3966 248.905Z" fill="white"/>
<path d="M170.846 228.093C170.846 224.866 171.312 221.607 172.243 218.317C173.174 215.028 174.601 212.203 176.525 209.845C180.622 204.631 186.456 202.024 194.029 202.024C198.374 202.024 202.594 202.986 206.691 204.91C207.746 205.345 208.274 206.059 208.274 207.052C208.274 208.914 207.529 209.876 206.039 209.938C205.729 209.938 205.45 209.907 205.201 209.845C200.918 208.355 197.505 207.61 194.96 207.61C192.477 207.61 190.398 207.89 188.722 208.448C187.046 209.007 185.587 209.783 184.346 210.776C183.105 211.769 182.05 212.917 181.181 214.221C180.312 215.524 179.629 216.983 179.132 218.597C178.077 221.576 177.55 224.741 177.55 228.093C177.55 233.555 178.76 238.148 181.181 241.872C184.036 246.279 188.443 248.483 194.401 248.483C198.498 248.483 202.408 247.397 206.132 245.224C206.629 245.1 207.094 245.038 207.529 245.038C208.025 245.038 208.46 245.255 208.832 245.69C209.267 246.124 209.484 246.683 209.484 247.366C209.484 248.048 209.236 248.7 208.739 249.321C208.243 249.879 207.56 250.407 206.691 250.903C205.884 251.338 204.953 251.741 203.898 252.114C202.905 252.486 201.85 252.797 200.732 253.045C198.374 253.666 196.139 253.976 194.029 253.976C186.394 253.976 180.56 251.4 176.525 246.248C172.739 241.593 170.846 235.541 170.846 228.093Z" fill="white"/>
<path d="M222.854 205.562C222.854 204.321 223.537 203.359 224.903 202.676C225.275 202.49 225.678 202.397 226.113 202.397H241.289C249.482 202.397 255.006 204.569 257.861 208.914C258.854 210.714 259.351 213.01 259.351 215.803C259.351 218.534 258.451 220.862 256.651 222.786C254.851 224.71 252.275 226.014 248.923 226.697V226.976C252.151 227.534 254.447 228.745 255.813 230.607C256.868 232.159 257.52 234.238 257.768 236.845C258.078 239.452 258.327 241.5 258.513 242.99C258.699 245.162 258.885 247.552 259.072 250.159C259.072 251.214 258.73 251.99 258.047 252.486C257.427 252.983 256.713 253.231 255.906 253.231C255.099 253.231 254.385 253.014 253.765 252.579C253.144 252.083 252.772 251.369 252.647 250.438C252.399 247.583 252.182 245.069 251.996 242.897C251.81 240.662 251.592 238.8 251.344 237.31C251.096 235.759 250.754 234.486 250.32 233.493C249.885 232.5 249.296 231.724 248.551 231.166C247.31 230.234 244.858 229.707 241.196 229.583H229.185V250.159C229.185 251.648 228.534 252.61 227.23 253.045C226.858 253.169 226.361 253.231 225.741 253.231C225.182 253.231 224.561 252.983 223.878 252.486C223.196 251.99 222.854 251.214 222.854 250.159V205.562ZM238.496 224.741C244.392 224.741 248.365 223.81 250.413 221.948C251.903 220.645 252.71 218.69 252.834 216.083C252.834 212.421 251.468 210 248.737 208.821C247.247 208.076 245.758 207.672 244.268 207.61C242.778 207.486 241.599 207.424 240.73 207.424H229.185V224.741H238.496Z" fill="white"/>
<path d="M275.142 253.231C274.397 253.231 273.776 252.983 273.28 252.486C272.411 251.741 271.976 250.966 271.976 250.159V205.562C271.976 204.383 272.597 203.452 273.838 202.769C274.211 202.645 274.583 202.521 274.956 202.397H301.49C302.421 202.397 303.104 202.676 303.538 203.234C303.973 203.793 304.19 204.414 304.19 205.097C304.19 205.717 303.942 206.307 303.445 206.866C302.949 207.424 302.297 207.703 301.49 207.703H278.121V224.555H300.373C301.304 224.555 301.987 224.834 302.421 225.393C302.856 225.89 303.073 226.479 303.073 227.162C303.073 227.783 302.825 228.341 302.328 228.838C301.832 229.334 301.18 229.583 300.373 229.583H278.121V248.017H302.514C303.383 248.017 304.035 248.297 304.47 248.855C304.904 249.414 305.121 250.034 305.121 250.717C305.121 251.4 304.873 251.99 304.376 252.486C303.942 252.983 303.321 253.231 302.514 253.231H275.142Z" fill="white"/>
<path d="M313.624 228.093C313.624 224.866 314.09 221.607 315.021 218.317C315.952 215.028 317.38 212.203 319.304 209.845C323.4 204.631 329.235 202.024 336.807 202.024C341.152 202.024 345.373 202.986 349.469 204.91C350.524 205.345 351.052 206.059 351.052 207.052C351.052 208.914 350.307 209.876 348.818 209.938C348.507 209.938 348.228 209.907 347.98 209.845C343.697 208.355 340.283 207.61 337.738 207.61C335.255 207.61 333.176 207.89 331.5 208.448C329.824 209.007 328.366 209.783 327.124 210.776C325.883 211.769 324.828 212.917 323.959 214.221C323.09 215.524 322.407 216.983 321.911 218.597C320.855 221.576 320.328 224.741 320.328 228.093C320.328 233.555 321.538 238.148 323.959 241.872C326.814 246.279 331.221 248.483 337.18 248.483C341.276 248.483 345.186 247.397 348.911 245.224C349.407 245.1 349.873 245.038 350.307 245.038C350.804 245.038 351.238 245.255 351.611 245.69C352.045 246.124 352.262 246.683 352.262 247.366C352.262 248.048 352.014 248.7 351.518 249.321C351.021 249.879 350.338 250.407 349.469 250.903C348.662 251.338 347.731 251.741 346.676 252.114C345.683 252.486 344.628 252.797 343.511 253.045C341.152 253.666 338.918 253.976 336.807 253.976C329.173 253.976 323.338 251.4 319.304 246.248C315.518 241.593 313.624 235.541 313.624 228.093Z" fill="white"/>
<path d="M398.405 205.469C398.405 204.041 399.119 203.11 400.546 202.676C400.919 202.614 401.384 202.552 401.943 202.49C402.502 202.428 403.122 202.645 403.805 203.141C404.488 203.638 404.829 204.414 404.829 205.469V250.159C404.829 251.09 404.55 251.803 403.991 252.3C403.246 252.921 402.44 253.231 401.571 253.231C400.764 253.231 400.019 252.983 399.336 252.486C398.715 251.99 398.405 251.214 398.405 250.159V229.49H371.684V250.159C371.684 251.09 371.436 251.803 370.94 252.3C370.195 252.921 369.388 253.231 368.519 253.231C367.65 253.231 366.905 252.983 366.284 252.486C365.664 251.99 365.353 251.214 365.353 250.159V205.469C365.353 204.041 366.036 203.11 367.402 202.676C367.774 202.614 368.24 202.552 368.798 202.49C369.357 202.428 369.978 202.645 370.66 203.141C371.343 203.638 371.684 204.414 371.684 205.469V224.183H398.405V205.469Z" fill="white"/>
<path d="M421.875 253.231C421.13 253.231 420.51 252.983 420.013 252.486C419.144 251.741 418.71 250.966 418.71 250.159V205.562C418.71 204.383 419.331 203.452 420.572 202.769C420.944 202.645 421.317 202.521 421.689 202.397H448.224C449.155 202.397 449.837 202.676 450.272 203.234C450.706 203.793 450.924 204.414 450.924 205.097C450.924 205.717 450.675 206.307 450.179 206.866C449.682 207.424 449.03 207.703 448.224 207.703H424.855V224.555H447.106C448.037 224.555 448.72 224.834 449.155 225.393C449.589 225.89 449.806 226.479 449.806 227.162C449.806 227.783 449.558 228.341 449.062 228.838C448.565 229.334 447.913 229.583 447.106 229.583H424.855V248.017H449.248C450.117 248.017 450.768 248.297 451.203 248.855C451.637 249.414 451.855 250.034 451.855 250.717C451.855 251.4 451.606 251.99 451.11 252.486C450.675 252.983 450.055 253.231 449.248 253.231H421.875Z" fill="white"/>
<path d="M170 262.138C170 261.609 170.154 261.191 170.463 260.882C170.991 260.353 171.564 260.045 172.181 259.957H183.813C187.03 259.957 189.673 260.816 191.744 262.534C193.771 264.165 194.784 266.346 194.784 269.078C194.784 271.06 194.168 272.779 192.934 274.233C191.612 275.731 189.916 276.722 187.845 277.207V277.273C191.81 277.978 194.432 279.873 195.71 282.957C196.062 283.926 196.239 285.028 196.239 286.261C196.239 287.495 196.04 288.707 195.644 289.897C195.247 291.086 194.564 292.122 193.595 293.003C191.392 295.03 188.285 296.043 184.276 296.043H172.181C171.652 296.043 171.19 295.867 170.793 295.514C170.264 295.074 170 294.523 170 293.862V262.138ZM174.362 292.606H181.963C185.311 292.606 187.669 292.122 189.034 291.152C190.753 290.095 191.612 288.332 191.612 285.865C191.612 281.988 189.321 279.784 184.739 279.256C183.373 279.168 181.83 279.124 180.112 279.124H174.362V292.606ZM190.224 269.474C190.224 265.42 187.426 263.438 181.83 263.526H174.362V275.819H181.897C185.598 275.819 188.131 274.695 189.497 272.448C189.982 271.655 190.224 270.664 190.224 269.474Z" fill="white"/>
<path d="M233.753 293.267C233.797 293.532 233.819 293.796 233.819 294.06C233.819 294.325 233.753 294.589 233.621 294.853C233.488 295.118 233.312 295.316 233.092 295.448C232.651 295.845 232.167 296.043 231.638 296.043C230.58 296.043 229.875 295.58 229.523 294.655L226.284 286.658H208.44L205.267 294.655C204.959 295.58 204.342 296.043 203.417 296.043C202.491 296.043 201.786 295.647 201.302 294.853C201.169 294.589 201.103 294.347 201.103 294.126C201.103 293.906 201.169 293.62 201.302 293.267L213.264 263.922C214.146 261.719 215.159 260.464 216.305 260.155C216.613 260.111 217.009 260.045 217.494 259.957C218.375 259.957 219.036 260.155 219.477 260.552C220.182 261.08 220.887 262.204 221.592 263.922L233.753 293.267ZM209.695 283.155H225.095L217.362 263.724L209.695 283.155Z" fill="white"/>
<path d="M237.587 263.724C236.926 263.724 236.441 263.526 236.132 263.129C235.824 262.733 235.67 262.314 235.67 261.874C235.67 261.389 235.824 260.948 236.132 260.552C236.441 260.155 236.926 259.957 237.587 259.957H261.71C262.327 259.957 262.79 260.155 263.098 260.552C263.406 260.948 263.561 261.389 263.561 261.874C263.561 262.314 263.384 262.733 263.032 263.129C262.723 263.526 262.283 263.724 261.71 263.724H251.928V293.862C251.928 294.875 251.488 295.558 250.607 295.911C250.342 295.999 249.99 296.043 249.549 296.043C249.109 296.043 248.646 295.867 248.161 295.514C247.677 295.162 247.434 294.611 247.434 293.862V263.724H237.587Z" fill="white"/>
<path d="M297.991 293.267C298.035 293.532 298.057 293.796 298.057 294.06C298.057 294.325 297.991 294.589 297.859 294.853C297.727 295.118 297.55 295.316 297.33 295.448C296.89 295.845 296.405 296.043 295.876 296.043C294.819 296.043 294.114 295.58 293.761 294.655L290.523 286.658H272.678L269.505 294.655C269.197 295.58 268.58 296.043 267.655 296.043C266.73 296.043 266.025 295.647 265.54 294.853C265.408 294.589 265.342 294.347 265.342 294.126C265.342 293.906 265.408 293.62 265.54 293.267L277.503 263.922C278.384 261.719 279.397 260.464 280.543 260.155C280.851 260.111 281.248 260.045 281.732 259.957C282.614 259.957 283.275 260.155 283.715 260.552C284.42 261.08 285.125 262.204 285.83 263.922L297.991 293.267ZM273.934 283.155H289.333L281.6 263.724L273.934 283.155Z" fill="white"/>
<path d="M301.825 263.724C301.164 263.724 300.679 263.526 300.371 263.129C300.062 262.733 299.908 262.314 299.908 261.874C299.908 261.389 300.062 260.948 300.371 260.552C300.679 260.155 301.164 259.957 301.825 259.957H325.948C326.565 259.957 327.028 260.155 327.336 260.552C327.645 260.948 327.799 261.389 327.799 261.874C327.799 262.314 327.623 262.733 327.27 263.129C326.962 263.526 326.521 263.724 325.948 263.724H316.167V293.862C316.167 294.875 315.726 295.558 314.845 295.911C314.581 295.999 314.228 296.043 313.787 296.043C313.347 296.043 312.884 295.867 312.4 295.514C311.915 295.162 311.672 294.611 311.672 293.862V263.724H301.825Z" fill="white"/>
<path d="M333.612 262.138C333.612 261.213 334.052 260.552 334.933 260.155C335.198 260.111 335.572 260.067 336.057 260.023C336.542 259.979 336.982 260.133 337.379 260.486C337.819 260.838 338.04 261.389 338.04 262.138V293.862C338.04 294.92 337.577 295.602 336.652 295.911C336.387 295.999 336.035 296.043 335.594 296.043C335.154 296.043 334.713 295.867 334.272 295.514C333.832 295.162 333.612 294.611 333.612 293.862V262.138Z" fill="white"/>
<path d="M347.831 262.931C347.831 262.094 348.117 261.411 348.69 260.882C349.219 260.353 349.792 260.045 350.409 259.957C351.642 259.957 352.612 260.442 353.317 261.411L372.483 290.293V262.072C372.483 261.367 372.615 260.882 372.88 260.618C373.365 260.177 373.827 259.957 374.268 259.957C374.752 259.957 375.127 260.001 375.391 260.089C375.656 260.177 375.876 260.309 376.052 260.486C376.537 260.838 376.757 261.367 376.713 262.072V293.069C376.713 294.391 376.074 295.316 374.797 295.845C374.488 295.977 374.092 296.043 373.607 296.043C372.549 296.043 371.624 295.558 370.831 294.589L352.127 266.103V294.06C352.127 294.677 351.951 295.118 351.598 295.382C351.069 295.823 350.519 296.043 349.946 296.043C349.373 296.043 348.866 295.889 348.426 295.58C348.029 295.228 347.831 294.721 347.831 294.06V262.931Z" fill="white"/>
<path d="M409.405 262.138C409.405 261.125 409.911 260.464 410.925 260.155C411.189 260.111 411.52 260.067 411.916 260.023C412.313 259.979 412.753 260.133 413.238 260.486C413.723 260.838 413.965 261.389 413.965 262.138V293.862C413.965 294.523 413.767 295.03 413.37 295.382C412.841 295.823 412.269 296.043 411.652 296.043C411.079 296.043 410.55 295.867 410.066 295.514C409.625 295.162 409.405 294.611 409.405 293.862V279.19H390.436V293.862C390.436 294.523 390.26 295.03 389.908 295.382C389.379 295.823 388.806 296.043 388.189 296.043C387.572 296.043 387.044 295.867 386.603 295.514C386.162 295.162 385.942 294.611 385.942 293.862V262.138C385.942 261.125 386.427 260.464 387.396 260.155C387.66 260.111 387.991 260.067 388.387 260.023C388.784 259.979 389.225 260.133 389.709 260.486C390.194 260.838 390.436 261.389 390.436 262.138V275.422H409.405V262.138Z" fill="white"/>
<path d="M452.635 293.267C452.679 293.532 452.701 293.796 452.701 294.06C452.701 294.325 452.635 294.589 452.502 294.853C452.37 295.118 452.194 295.316 451.974 295.448C451.533 295.845 451.048 296.043 450.52 296.043C449.462 296.043 448.757 295.58 448.405 294.655L445.166 286.658H427.321L424.149 294.655C423.841 295.58 423.224 296.043 422.298 296.043C421.373 296.043 420.668 295.647 420.183 294.853C420.051 294.589 419.985 294.347 419.985 294.126C419.985 293.906 420.051 293.62 420.183 293.267L432.146 263.922C433.027 261.719 434.041 260.464 435.186 260.155C435.495 260.111 435.891 260.045 436.376 259.957C437.257 259.957 437.918 260.155 438.359 260.552C439.064 261.08 439.769 262.204 440.474 263.922L452.635 293.267ZM428.577 283.155H443.977L436.244 263.724L428.577 283.155Z" fill="white"/>
</svg>
