<svg width="33" height="29" viewBox="0 0 33 29" fill="none" xmlns="http://www.w3.org/2000/svg">
<path d="M28.6406 7.5625C27.8402 7.5625 27.0578 7.79985 26.3923 8.24452C25.7268 8.6892 25.2081 9.32123 24.9018 10.0607C24.5955 10.8002 24.5154 11.6139 24.6715 12.3989C24.8277 13.1839 25.2131 13.905 25.7791 14.4709C26.345 15.0369 27.0661 15.4223 27.8511 15.5785C28.6361 15.7346 29.4498 15.6545 30.1893 15.3482C30.9288 15.0419 31.5608 14.5232 32.0055 13.8577C32.4502 13.1922 32.6875 12.4098 32.6875 11.6094C32.6863 10.5364 32.2595 9.50781 31.5009 8.74913C30.7422 7.99046 29.7136 7.5637 28.6406 7.5625ZM28.6406 13.3438C28.2976 13.3438 27.9623 13.242 27.6771 13.0515C27.3918 12.8609 27.1695 12.59 27.0383 12.2731C26.907 11.9562 26.8727 11.6075 26.9396 11.271C27.0065 10.9346 27.1717 10.6255 27.4142 10.383C27.6568 10.1404 27.9658 9.97525 28.3023 9.90833C28.6387 9.8414 28.9874 9.87575 29.3043 10.007C29.6213 10.1383 29.8921 10.3606 30.0827 10.6458C30.2733 10.931 30.375 11.2663 30.375 11.6094C30.3745 12.0692 30.1916 12.51 29.8664 12.8352C29.5413 13.1603 29.1005 13.3432 28.6406 13.3438ZM8.40625 11.6094C8.40625 10.809 8.16891 10.0266 7.72423 9.36105C7.27955 8.69555 6.64752 8.17685 5.90805 7.87055C5.16858 7.56425 4.35489 7.48411 3.56987 7.64026C2.78485 7.79641 2.06377 8.18184 1.4978 8.7478C0.931839 9.31377 0.546411 10.0349 0.390261 10.8199C0.234112 11.6049 0.314253 12.4186 0.620552 13.158C0.92685 13.8975 1.44555 14.5296 2.11105 14.9742C2.77656 15.4189 3.55898 15.6562 4.35938 15.6562C5.43231 15.655 6.46095 15.2283 7.21962 14.4696C7.9783 13.7109 8.40505 12.6823 8.40625 11.6094ZM4.35938 13.3438C4.01635 13.3438 3.68103 13.242 3.39581 13.0515C3.11059 12.8609 2.88829 12.59 2.75702 12.2731C2.62575 11.9562 2.59141 11.6075 2.65833 11.271C2.72525 10.9346 2.89043 10.6255 3.13299 10.383C3.37555 10.1404 3.68458 9.97525 4.02102 9.90833C4.35745 9.8414 4.70618 9.87575 5.02309 10.007C5.34001 10.1383 5.61088 10.3606 5.80146 10.6458C5.99203 10.931 6.09375 11.2663 6.09375 11.6094C6.09324 12.0692 5.91034 12.51 5.5852 12.8352C5.26005 13.1603 4.8192 13.3432 4.35938 13.3438ZM11.2969 8.71875C12.0973 8.71875 12.8797 8.48141 13.5452 8.03673C14.2107 7.59205 14.7294 6.96002 15.0357 6.22055C15.342 5.48108 15.4221 4.66739 15.266 3.88237C15.1098 3.09735 14.7244 2.37627 14.1585 1.8103C13.5925 1.24434 12.8714 0.858911 12.0864 0.702761C11.3014 0.546612 10.4877 0.626753 9.74821 0.933052C9.00874 1.23935 8.3767 1.75805 7.93202 2.42355C7.48735 3.08906 7.25 3.87148 7.25 4.67188C7.2512 5.7448 7.67796 6.77344 8.43663 7.53212C9.19531 8.2908 10.2239 8.71755 11.2969 8.71875ZM11.2969 2.9375C11.6399 2.9375 11.9752 3.03922 12.2604 3.2298C12.5457 3.42037 12.768 3.69124 12.8992 4.00816C13.0305 4.32508 13.0648 4.6738 12.9979 5.01024C12.931 5.34667 12.7658 5.65571 12.5233 5.89826C12.2807 6.14082 11.9717 6.306 11.6352 6.37293C11.2988 6.43985 10.9501 6.4055 10.6332 6.27423C10.3162 6.14296 10.0454 5.92066 9.8548 5.63544C9.66422 5.35023 9.5625 5.0149 9.5625 4.67188C9.56302 4.21205 9.74591 3.7712 10.0711 3.44606C10.3962 3.12091 10.8371 2.93802 11.2969 2.9375ZM21.7031 8.71875C22.5035 8.71875 23.2859 8.48141 23.9515 8.03673C24.617 7.59205 25.1357 6.96002 25.442 6.22055C25.7482 5.48108 25.8284 4.66739 25.6722 3.88237C25.5161 3.09735 25.1307 2.37627 24.5647 1.8103C23.9987 1.24434 23.2776 0.858911 22.4926 0.702761C21.7076 0.546612 20.8939 0.626753 20.1545 0.933052C19.415 1.23935 18.783 1.75805 18.3383 2.42355C17.8936 3.08906 17.6563 3.87148 17.6563 4.67188C17.6575 5.7448 18.0842 6.77344 18.8429 7.53212C19.6016 8.2908 20.6302 8.71755 21.7031 8.71875ZM21.7031 2.9375C22.0462 2.9375 22.3815 3.03922 22.6667 3.2298C22.9519 3.42037 23.1742 3.69124 23.3055 4.00816C23.4368 4.32508 23.4711 4.6738 23.4042 5.01024C23.3373 5.34667 23.1721 5.65571 22.9295 5.89826C22.687 6.14082 22.3779 6.306 22.0415 6.37293C21.7051 6.43985 21.3563 6.4055 21.0394 6.27423C20.7225 6.14296 20.4516 5.92066 20.261 5.63544C20.0705 5.35023 19.9688 5.0149 19.9688 4.67188C19.9693 4.21205 20.1522 3.7712 20.4773 3.44606C20.8025 3.12091 21.2433 2.93802 21.7031 2.9375ZM25.0406 17.5127C23.8568 16.8577 22.9813 15.7596 22.6064 14.4596C22.2222 13.1374 21.4192 11.9756 20.318 11.1488C19.2169 10.3221 17.8772 9.87508 16.5002 9.87501C15.1233 9.87493 13.7835 10.3218 12.6823 11.1484C11.5811 11.9751 10.7779 13.1368 10.3936 14.459C10.0202 15.7573 9.14693 16.8543 7.96546 17.5093C6.6607 18.2166 5.67787 19.3986 5.22042 20.8105C4.76297 22.2223 4.86592 23.7561 5.50797 25.0942C6.15001 26.4322 7.28199 27.4722 8.66957 27.9988C10.0572 28.5254 11.5941 28.4983 12.9622 27.9231C15.2233 26.9886 17.7623 26.9867 20.0248 27.9177C21.3922 28.497 22.93 28.5279 24.3196 28.0042C25.7092 27.4804 26.844 26.4421 27.4889 25.1044C28.1338 23.7667 28.2392 22.2322 27.7834 20.8188C27.3276 19.4055 26.3455 18.2216 25.0406 17.5127ZM22.2813 26.0625C21.8117 26.0631 21.3469 25.9681 20.9151 25.7835C18.0828 24.615 14.9028 24.6169 12.0719 25.7888C11.25 26.1366 10.3257 26.1543 9.49101 25.8383C8.65638 25.5222 7.97562 24.8967 7.59021 24.0918C7.20481 23.2868 7.14441 22.3643 7.42155 21.5159C7.6987 20.6676 8.29208 19.9586 9.07838 19.5364C9.93 19.0661 10.6806 18.4326 11.2873 17.6721C11.894 16.9116 12.3449 16.0391 12.6143 15.1042C12.859 14.2629 13.3701 13.5237 14.0708 12.9978C14.7716 12.4718 15.6241 12.1875 16.5003 12.1875C17.3765 12.1875 18.2289 12.4719 18.9296 12.998C19.6303 13.524 20.1414 14.2632 20.386 15.1046C20.6553 16.0394 21.1062 16.9119 21.7128 17.6723C22.3195 18.4328 23.07 19.0662 23.9216 19.5364L23.9319 19.5421C24.6107 19.9094 25.1477 20.4927 25.4577 21.1995C25.7678 21.9063 25.8333 22.6964 25.6439 23.4446C25.4545 24.1929 25.0209 24.8566 24.4119 25.3307C23.8029 25.8049 23.0531 26.0624 22.2813 26.0625Z" fill="#9A9A9A"/>
</svg>
