<svg width="500" height="500" viewBox="0 0 500 500" fill="none" xmlns="http://www.w3.org/2000/svg">
<rect width="500" height="500" fill="white"/>
<path d="M135.949 211.337C132.724 207.907 128.781 205.065 124.24 203.086C119.702 201.106 114.57 199.997 109.048 200C108.036 200 107.007 200.034 105.963 200.112H105.968C98.3365 200.675 91.6924 203.873 86.1198 207.467C80.6898 210.979 76.1839 214.946 72.8703 217.546C64.5536 221.646 56.9197 226.196 51.0242 232.157C48.0386 235.183 45.512 238.579 43.6435 242.42C41.7731 246.257 40.5693 250.529 40.1657 255.252C40.0553 256.532 40 257.792 40 259.032C39.9983 265.471 41.4733 271.322 44.0888 276.42C48.0138 284.077 54.4653 289.996 62.0973 293.964C69.7358 297.937 78.5667 299.997 87.4728 300C100.088 300.002 111.541 295.229 119.789 287.535C127.233 281.515 133.619 272.693 138.303 263.527C140.659 258.9 142.569 254.186 143.9 249.682C145.231 245.178 145.997 240.892 146 237.034C145.997 227.389 142.394 218.202 135.949 211.337ZM136.952 247.908C135.142 254.026 132.068 260.815 128.205 267.007C124.352 273.205 119.692 278.814 114.892 282.629L114.788 282.711L114.686 282.808C107.72 289.295 98.1176 293.302 87.4733 293.303C77.1941 293.31 67.0169 290.089 59.5556 284.233C55.8185 281.307 52.7475 277.732 50.5975 273.539C48.451 269.347 47.2103 264.529 47.2086 259.032C47.2086 257.974 47.2536 256.891 47.3492 255.786C47.6959 251.783 48.6905 248.306 50.2107 245.179C52.4946 240.492 55.9941 236.544 60.5016 232.974C65.006 229.412 70.5077 226.265 76.6027 223.285L76.9426 223.117L77.2391 222.887C80.8491 220.063 85.2175 216.204 90.2359 212.966C95.2457 209.721 100.793 207.192 106.528 206.789H106.533C107.384 206.725 108.223 206.696 109.048 206.696C113.541 206.699 117.584 207.584 121.179 209.149C126.561 211.495 130.948 215.398 134.015 220.271C137.078 225.14 138.794 230.966 138.792 237.035C138.795 240.054 138.159 243.835 136.952 247.908Z" fill="#EB339B"/>
<path d="M80.8071 275.692C78.2988 275.692 76.2644 277.581 76.2644 279.911C76.2644 282.245 78.2988 284.133 80.8071 284.133C83.3153 284.133 85.3497 282.244 85.3497 279.911C85.3497 277.581 83.3155 275.692 80.8071 275.692Z" fill="#EB339B"/>
<path d="M107.236 258.949C104.728 258.949 102.693 260.84 102.693 263.17C102.693 265.503 104.728 267.392 107.236 267.392C109.744 267.392 111.779 265.503 111.779 263.17C111.779 260.84 109.744 258.949 107.236 258.949Z" fill="#EB339B"/>
<path d="M94.2845 226.826C91.7779 226.826 89.7435 228.716 89.7435 231.047C89.7435 233.38 91.7779 235.268 94.2845 235.268C96.7947 235.268 98.8288 233.38 98.8288 231.047C98.8288 228.716 96.7944 226.826 94.2845 226.826Z" fill="#EB339B"/>
<path d="M120.713 231.29C118.205 231.29 116.172 233.181 116.172 235.51C116.172 237.843 118.205 239.732 120.713 239.732C123.223 239.732 125.258 237.843 125.258 235.51C125.258 233.181 123.223 231.29 120.713 231.29Z" fill="#EB339B"/>
<path d="M72.3966 248.905C69.8883 248.905 67.854 250.795 67.854 253.125C67.854 255.457 69.8883 257.346 72.3966 257.346C74.9067 257.346 76.9409 255.457 76.9409 253.125C76.9409 250.795 74.9065 248.905 72.3966 248.905Z" fill="#EB339B"/>
<path d="M162.846 228.093C162.846 224.866 163.312 221.607 164.243 218.317C165.174 215.028 166.601 212.203 168.525 209.845C172.622 204.631 178.456 202.024 186.029 202.024C190.374 202.024 194.594 202.986 198.691 204.91C199.746 205.345 200.274 206.059 200.274 207.052C200.274 208.914 199.529 209.876 198.039 209.938C197.729 209.938 197.45 209.907 197.201 209.845C192.918 208.355 189.505 207.61 186.96 207.61C184.477 207.61 182.398 207.89 180.722 208.448C179.046 209.007 177.587 209.783 176.346 210.776C175.105 211.769 174.05 212.917 173.181 214.221C172.312 215.524 171.629 216.983 171.132 218.597C170.077 221.576 169.55 224.741 169.55 228.093C169.55 233.555 170.76 238.148 173.181 241.872C176.036 246.279 180.443 248.483 186.401 248.483C190.498 248.483 194.408 247.397 198.132 245.224C198.629 245.1 199.094 245.038 199.529 245.038C200.025 245.038 200.46 245.255 200.832 245.69C201.267 246.124 201.484 246.683 201.484 247.366C201.484 248.048 201.236 248.7 200.739 249.321C200.243 249.879 199.56 250.407 198.691 250.903C197.884 251.338 196.953 251.741 195.898 252.114C194.905 252.486 193.85 252.797 192.732 253.045C190.374 253.666 188.139 253.976 186.029 253.976C178.394 253.976 172.56 251.4 168.525 246.248C164.739 241.593 162.846 235.541 162.846 228.093Z" fill="#EB339B"/>
<path d="M214.854 205.562C214.854 204.321 215.537 203.359 216.903 202.676C217.275 202.49 217.678 202.397 218.113 202.397H233.289C241.482 202.397 247.006 204.569 249.861 208.914C250.854 210.714 251.351 213.01 251.351 215.803C251.351 218.534 250.451 220.862 248.651 222.786C246.851 224.71 244.275 226.014 240.923 226.697V226.976C244.151 227.534 246.447 228.745 247.813 230.607C248.868 232.159 249.52 234.238 249.768 236.845C250.078 239.452 250.327 241.5 250.513 242.99C250.699 245.162 250.885 247.552 251.072 250.159C251.072 251.214 250.73 251.99 250.047 252.486C249.427 252.983 248.713 253.231 247.906 253.231C247.099 253.231 246.385 253.014 245.765 252.579C245.144 252.083 244.772 251.369 244.647 250.438C244.399 247.583 244.182 245.069 243.996 242.897C243.81 240.662 243.592 238.8 243.344 237.31C243.096 235.759 242.754 234.486 242.32 233.493C241.885 232.5 241.296 231.724 240.551 231.166C239.31 230.234 236.858 229.707 233.196 229.583H221.185V250.159C221.185 251.648 220.534 252.61 219.23 253.045C218.858 253.169 218.361 253.231 217.741 253.231C217.182 253.231 216.561 252.983 215.878 252.486C215.196 251.99 214.854 251.214 214.854 250.159V205.562ZM230.496 224.741C236.392 224.741 240.365 223.81 242.413 221.948C243.903 220.645 244.71 218.69 244.834 216.083C244.834 212.421 243.468 210 240.737 208.821C239.247 208.076 237.758 207.672 236.268 207.61C234.778 207.486 233.599 207.424 232.73 207.424H221.185V224.741H230.496Z" fill="#EB339B"/>
<path d="M267.142 253.231C266.397 253.231 265.776 252.983 265.28 252.486C264.411 251.741 263.976 250.966 263.976 250.159V205.562C263.976 204.383 264.597 203.452 265.838 202.769C266.211 202.645 266.583 202.521 266.956 202.397H293.49C294.421 202.397 295.104 202.676 295.538 203.234C295.973 203.793 296.19 204.414 296.19 205.097C296.19 205.717 295.942 206.307 295.445 206.866C294.949 207.424 294.297 207.703 293.49 207.703H270.121V224.555H292.373C293.304 224.555 293.987 224.834 294.421 225.393C294.856 225.89 295.073 226.479 295.073 227.162C295.073 227.783 294.825 228.341 294.328 228.838C293.832 229.334 293.18 229.583 292.373 229.583H270.121V248.017H294.514C295.383 248.017 296.035 248.297 296.47 248.855C296.904 249.414 297.121 250.034 297.121 250.717C297.121 251.4 296.873 251.99 296.376 252.486C295.942 252.983 295.321 253.231 294.514 253.231H267.142Z" fill="#EB339B"/>
<path d="M305.624 228.093C305.624 224.866 306.09 221.607 307.021 218.317C307.952 215.028 309.38 212.203 311.304 209.845C315.4 204.631 321.235 202.024 328.807 202.024C333.152 202.024 337.373 202.986 341.469 204.91C342.524 205.345 343.052 206.059 343.052 207.052C343.052 208.914 342.307 209.876 340.818 209.938C340.507 209.938 340.228 209.907 339.98 209.845C335.697 208.355 332.283 207.61 329.738 207.61C327.255 207.61 325.176 207.89 323.5 208.448C321.824 209.007 320.366 209.783 319.124 210.776C317.883 211.769 316.828 212.917 315.959 214.221C315.09 215.524 314.407 216.983 313.911 218.597C312.855 221.576 312.328 224.741 312.328 228.093C312.328 233.555 313.538 238.148 315.959 241.872C318.814 246.279 323.221 248.483 329.18 248.483C333.276 248.483 337.186 247.397 340.911 245.224C341.407 245.1 341.873 245.038 342.307 245.038C342.804 245.038 343.238 245.255 343.611 245.69C344.045 246.124 344.262 246.683 344.262 247.366C344.262 248.048 344.014 248.7 343.518 249.321C343.021 249.879 342.338 250.407 341.469 250.903C340.662 251.338 339.731 251.741 338.676 252.114C337.683 252.486 336.628 252.797 335.511 253.045C333.152 253.666 330.918 253.976 328.807 253.976C321.173 253.976 315.338 251.4 311.304 246.248C307.518 241.593 305.624 235.541 305.624 228.093Z" fill="#EB339B"/>
<path d="M390.405 205.469C390.405 204.041 391.119 203.11 392.546 202.676C392.919 202.614 393.384 202.552 393.943 202.49C394.502 202.428 395.122 202.645 395.805 203.141C396.488 203.638 396.829 204.414 396.829 205.469V250.159C396.829 251.09 396.55 251.803 395.991 252.3C395.246 252.921 394.44 253.231 393.571 253.231C392.764 253.231 392.019 252.983 391.336 252.486C390.715 251.99 390.405 251.214 390.405 250.159V229.49H363.684V250.159C363.684 251.09 363.436 251.803 362.94 252.3C362.195 252.921 361.388 253.231 360.519 253.231C359.65 253.231 358.905 252.983 358.284 252.486C357.664 251.99 357.353 251.214 357.353 250.159V205.469C357.353 204.041 358.036 203.11 359.402 202.676C359.774 202.614 360.24 202.552 360.798 202.49C361.357 202.428 361.978 202.645 362.66 203.141C363.343 203.638 363.684 204.414 363.684 205.469V224.183H390.405V205.469Z" fill="#EB339B"/>
<path d="M413.875 253.231C413.13 253.231 412.51 252.983 412.013 252.486C411.144 251.741 410.71 250.966 410.71 250.159V205.562C410.71 204.383 411.331 203.452 412.572 202.769C412.944 202.645 413.317 202.521 413.689 202.397H440.224C441.155 202.397 441.837 202.676 442.272 203.234C442.706 203.793 442.924 204.414 442.924 205.097C442.924 205.717 442.675 206.307 442.179 206.866C441.682 207.424 441.03 207.703 440.224 207.703H416.855V224.555H439.106C440.037 224.555 440.72 224.834 441.155 225.393C441.589 225.89 441.806 226.479 441.806 227.162C441.806 227.783 441.558 228.341 441.062 228.838C440.565 229.334 439.913 229.583 439.106 229.583H416.855V248.017H441.248C442.117 248.017 442.768 248.297 443.203 248.855C443.637 249.414 443.855 250.034 443.855 250.717C443.855 251.4 443.606 251.99 443.11 252.486C442.675 252.983 442.055 253.231 441.248 253.231H413.875Z" fill="#EB339B"/>
<path d="M162 262.138C162 261.609 162.154 261.191 162.463 260.882C162.991 260.353 163.564 260.045 164.181 259.957H175.813C179.03 259.957 181.673 260.816 183.744 262.534C185.771 264.165 186.784 266.346 186.784 269.078C186.784 271.06 186.168 272.779 184.934 274.233C183.612 275.731 181.916 276.722 179.845 277.207V277.273C183.81 277.978 186.432 279.873 187.71 282.957C188.062 283.926 188.239 285.028 188.239 286.261C188.239 287.495 188.04 288.707 187.644 289.897C187.247 291.086 186.564 292.122 185.595 293.003C183.392 295.03 180.285 296.043 176.276 296.043H164.181C163.652 296.043 163.19 295.867 162.793 295.514C162.264 295.074 162 294.523 162 293.862V262.138ZM166.362 292.606H173.963C177.311 292.606 179.669 292.122 181.034 291.152C182.753 290.095 183.612 288.332 183.612 285.865C183.612 281.988 181.321 279.784 176.739 279.256C175.373 279.168 173.83 279.124 172.112 279.124H166.362V292.606ZM182.224 269.474C182.224 265.42 179.426 263.438 173.83 263.526H166.362V275.819H173.897C177.598 275.819 180.131 274.695 181.497 272.448C181.982 271.655 182.224 270.664 182.224 269.474Z" fill="#EB339B"/>
<path d="M225.753 293.267C225.797 293.532 225.819 293.796 225.819 294.06C225.819 294.325 225.753 294.589 225.621 294.853C225.488 295.118 225.312 295.316 225.092 295.448C224.651 295.845 224.167 296.043 223.638 296.043C222.58 296.043 221.875 295.58 221.523 294.655L218.284 286.658H200.44L197.267 294.655C196.959 295.58 196.342 296.043 195.417 296.043C194.491 296.043 193.786 295.647 193.302 294.853C193.169 294.589 193.103 294.347 193.103 294.126C193.103 293.906 193.169 293.62 193.302 293.267L205.264 263.922C206.146 261.719 207.159 260.464 208.305 260.155C208.613 260.111 209.009 260.045 209.494 259.957C210.375 259.957 211.036 260.155 211.477 260.552C212.182 261.08 212.887 262.204 213.592 263.922L225.753 293.267ZM201.695 283.155H217.095L209.362 263.724L201.695 283.155Z" fill="#EB339B"/>
<path d="M229.587 263.724C228.926 263.724 228.441 263.526 228.132 263.129C227.824 262.733 227.67 262.314 227.67 261.874C227.67 261.389 227.824 260.948 228.132 260.552C228.441 260.155 228.926 259.957 229.587 259.957H253.71C254.327 259.957 254.79 260.155 255.098 260.552C255.406 260.948 255.561 261.389 255.561 261.874C255.561 262.314 255.384 262.733 255.032 263.129C254.723 263.526 254.283 263.724 253.71 263.724H243.928V293.862C243.928 294.875 243.488 295.558 242.607 295.911C242.342 295.999 241.99 296.043 241.549 296.043C241.109 296.043 240.646 295.867 240.161 295.514C239.677 295.162 239.434 294.611 239.434 293.862V263.724H229.587Z" fill="#EB339B"/>
<path d="M289.991 293.267C290.035 293.532 290.057 293.796 290.057 294.06C290.057 294.325 289.991 294.589 289.859 294.853C289.727 295.118 289.55 295.316 289.33 295.448C288.89 295.845 288.405 296.043 287.876 296.043C286.819 296.043 286.114 295.58 285.761 294.655L282.523 286.658H264.678L261.505 294.655C261.197 295.58 260.58 296.043 259.655 296.043C258.73 296.043 258.025 295.647 257.54 294.853C257.408 294.589 257.342 294.347 257.342 294.126C257.342 293.906 257.408 293.62 257.54 293.267L269.503 263.922C270.384 261.719 271.397 260.464 272.543 260.155C272.851 260.111 273.248 260.045 273.732 259.957C274.614 259.957 275.275 260.155 275.715 260.552C276.42 261.08 277.125 262.204 277.83 263.922L289.991 293.267ZM265.934 283.155H281.333L273.6 263.724L265.934 283.155Z" fill="#EB339B"/>
<path d="M293.825 263.724C293.164 263.724 292.679 263.526 292.371 263.129C292.062 262.733 291.908 262.314 291.908 261.874C291.908 261.389 292.062 260.948 292.371 260.552C292.679 260.155 293.164 259.957 293.825 259.957H317.948C318.565 259.957 319.028 260.155 319.336 260.552C319.645 260.948 319.799 261.389 319.799 261.874C319.799 262.314 319.623 262.733 319.27 263.129C318.962 263.526 318.521 263.724 317.948 263.724H308.167V293.862C308.167 294.875 307.726 295.558 306.845 295.911C306.581 295.999 306.228 296.043 305.787 296.043C305.347 296.043 304.884 295.867 304.4 295.514C303.915 295.162 303.672 294.611 303.672 293.862V263.724H293.825Z" fill="#EB339B"/>
<path d="M325.612 262.138C325.612 261.213 326.052 260.552 326.933 260.155C327.198 260.111 327.572 260.067 328.057 260.023C328.542 259.979 328.982 260.133 329.379 260.486C329.819 260.838 330.04 261.389 330.04 262.138V293.862C330.04 294.92 329.577 295.602 328.652 295.911C328.387 295.999 328.035 296.043 327.594 296.043C327.154 296.043 326.713 295.867 326.272 295.514C325.832 295.162 325.612 294.611 325.612 293.862V262.138Z" fill="#EB339B"/>
<path d="M339.831 262.931C339.831 262.094 340.117 261.411 340.69 260.882C341.219 260.353 341.792 260.045 342.409 259.957C343.642 259.957 344.612 260.442 345.317 261.411L364.483 290.293V262.072C364.483 261.367 364.615 260.882 364.88 260.618C365.365 260.177 365.827 259.957 366.268 259.957C366.752 259.957 367.127 260.001 367.391 260.089C367.656 260.177 367.876 260.309 368.052 260.486C368.537 260.838 368.757 261.367 368.713 262.072V293.069C368.713 294.391 368.074 295.316 366.797 295.845C366.488 295.977 366.092 296.043 365.607 296.043C364.549 296.043 363.624 295.558 362.831 294.589L344.127 266.103V294.06C344.127 294.677 343.951 295.118 343.598 295.382C343.069 295.823 342.519 296.043 341.946 296.043C341.373 296.043 340.866 295.889 340.426 295.58C340.029 295.228 339.831 294.721 339.831 294.06V262.931Z" fill="#EB339B"/>
<path d="M401.405 262.138C401.405 261.125 401.911 260.464 402.925 260.155C403.189 260.111 403.52 260.067 403.916 260.023C404.313 259.979 404.753 260.133 405.238 260.486C405.723 260.838 405.965 261.389 405.965 262.138V293.862C405.965 294.523 405.767 295.03 405.37 295.382C404.841 295.823 404.269 296.043 403.652 296.043C403.079 296.043 402.55 295.867 402.066 295.514C401.625 295.162 401.405 294.611 401.405 293.862V279.19H382.436V293.862C382.436 294.523 382.26 295.03 381.908 295.382C381.379 295.823 380.806 296.043 380.189 296.043C379.572 296.043 379.044 295.867 378.603 295.514C378.162 295.162 377.942 294.611 377.942 293.862V262.138C377.942 261.125 378.427 260.464 379.396 260.155C379.66 260.111 379.991 260.067 380.387 260.023C380.784 259.979 381.225 260.133 381.709 260.486C382.194 260.838 382.436 261.389 382.436 262.138V275.422H401.405V262.138Z" fill="#EB339B"/>
<path d="M444.635 293.267C444.679 293.532 444.701 293.796 444.701 294.06C444.701 294.325 444.635 294.589 444.502 294.853C444.37 295.118 444.194 295.316 443.974 295.448C443.533 295.845 443.048 296.043 442.52 296.043C441.462 296.043 440.757 295.58 440.405 294.655L437.166 286.658H419.321L416.149 294.655C415.841 295.58 415.224 296.043 414.298 296.043C413.373 296.043 412.668 295.647 412.183 294.853C412.051 294.589 411.985 294.347 411.985 294.126C411.985 293.906 412.051 293.62 412.183 293.267L424.146 263.922C425.027 261.719 426.041 260.464 427.186 260.155C427.495 260.111 427.891 260.045 428.376 259.957C429.257 259.957 429.918 260.155 430.359 260.552C431.064 261.08 431.769 262.204 432.474 263.922L444.635 293.267ZM420.577 283.155H435.977L428.244 263.724L420.577 283.155Z" fill="#EB339B"/>
</svg>
